# xmcd
#
# Track frame offsets:
#	150
#	19373
#	33242
#	47899
#	61278
#	74282
#	86712
#	99148
#	108774
#	126673
#	136906
#	147391
#	165791
#	178839
#	189280
#	205131
#
# Disc length: 3028 seconds
#
# Revision: 0
# Processed by: cddbd v1.5.2PL0 Copyright (c) Steve Scherf et al.
# Submitted via: dBpowerAMP V4.0
#
DISCID=dc0bd210
DTITLE=La Lupe - Greatest Hits
DYEAR=2008
DGENRE=Latin
TTITLE0=Que te Pedi
TTITLE1=La Tirana
TTITLE2=Si Vuelves Tu
TTITLE3=Puro Teatro
TTITLE4=Carcajada Final
TTITLE5=Cualquiera
TTITLE6=Fever
TTITLE7=El Carbonero
TTITLE8=Como un Gorrion
TTITLE9=Soy Hijo del Siboney
TTITLE10=Jugando Mama Jugando
TTITLE11=Oriente
TTITLE12=Me Siento Guajira
TTITLE13=La Reina
TTITLE14=Duena del Cantar
TTITLE15=Contigo Conmigo
EXTD=
EXTT0=
EXTT1=
EXTT2=
EXTT3=
EXTT4=
EXTT5=
EXTT6=
EXTT7=
EXTT8=
EXTT9=
EXTT10=
EXTT11=
EXTT12=
EXTT13=
EXTT14=
EXTT15=
PLAYORDER=
